<?xml version="1.0" encoding="UTF-8" standalone="no"?>
<svg
   id="Calque_1"
   viewBox="0 0 164.83 192.31068"
   version="1.1"
   sodipodi:docname="Logo-Picomo-hw.svg"
   width="164.83"
   height="192.31068"
   inkscape:export-filename="picomo.png"
   inkscape:export-xdpi="139.78038"
   inkscape:export-ydpi="139.78038"
   inkscape:version="1.3 (0e150ed, 2023-07-21)"
   xmlns:inkscape="http://www.inkscape.org/namespaces/inkscape"
   xmlns:sodipodi="http://sodipodi.sourceforge.net/DTD/sodipodi-0.dtd"
   xmlns="http://www.w3.org/2000/svg"
   xmlns:svg="http://www.w3.org/2000/svg">
  <sodipodi:namedview
     id="namedview4"
     pagecolor="#ffffff"
     bordercolor="#666666"
     borderopacity="1.0"
     inkscape:showpageshadow="2"
     inkscape:pageopacity="0.0"
     inkscape:pagecheckerboard="0"
     inkscape:deskcolor="#d1d1d1"
     inkscape:zoom="3.1129007"
     inkscape:cx="62.642537"
     inkscape:cy="70.191766"
     inkscape:window-width="1856"
     inkscape:window-height="1212"
     inkscape:window-x="149"
     inkscape:window-y="99"
     inkscape:window-maximized="0"
     inkscape:current-layer="Calque_1" />
  <defs
     id="defs1">
    <style
       id="style1">.cls-1{fill:#191915;stroke-width:0px;}</style>
  </defs>
  <rect
     style="fill:#007cb7;fill-opacity:1;stroke:#000000;stroke-width:0.259202;stroke-linecap:round"
     id="rect4"
     width="164.5708"
     height="192.05148"
     x="0.129601"
     y="0.129601" />
  <rect
     style="fill:#ffffff;fill-opacity:1;stroke:#000000;stroke-width:0.377953;stroke-linecap:round"
     id="rect5"
     width="112.22646"
     height="184.39394"
     x="26.301769"
     y="5.6604419" />
  <path
     class="cls-1"
     d="m 114.645,139.84711 c -0.67,-0.67 -1.46,-1.2 -2.36,-1.59 -0.91,-0.39 -1.87,-0.59 -2.9,-0.59 -1.03,0 -2,0.2 -2.9,0.59 -0.9,0.39 -1.69,0.92 -2.36,1.59 -0.67,0.67 -1.21,1.46 -1.6,2.37 -0.39,0.91 -0.59,1.87 -0.59,2.89 0,1.02 0.2,1.98 0.59,2.88 0.39,0.9 0.92,1.68 1.6,2.36 0.67,0.67 1.46,1.21 2.36,1.6 0.9,0.39 1.87,0.59 2.9,0.59 1.03,0 1.99,-0.2 2.9,-0.59 0.91,-0.39 1.7,-0.92 2.36,-1.6 0.67,-0.67 1.2,-1.46 1.59,-2.36 0.39,-0.9 0.59,-1.86 0.59,-2.88 0,-1.02 -0.2,-1.99 -0.59,-2.89 -0.39,-0.91 -0.92,-1.7 -1.59,-2.37 z"
     id="path1"
     style="fill:#007cb7;fill-opacity:1" />
  <path
     class="cls-1"
     d="m 59.795001,42.207112 c 1.38,-0.6 2.61,-1.43 3.65,-2.46 1.04,-1.04 1.87,-2.27 2.46,-3.67 0.6,-1.4 0.9,-2.9 0.9,-4.47 0,-1.57 -0.3,-3.08 -0.9,-4.47 -0.6,-1.39 -1.43,-2.63 -2.46,-3.67 -1.04,-1.04 -2.26,-1.87 -3.65,-2.46 -1.39,-0.6 -2.88,-0.9 -4.45,-0.9 h -11.51 v 23.02 h 11.51 c 1.57,0 3.07,-0.3 4.45,-0.9 z"
     id="path2"
     style="fill:#007cb7;fill-opacity:1" />
  <path
     class="cls-1"
     d="M 17.845001,5.7871117 V 186.51711 c 0,3.13 2.54,5.67 5.67,5.67 H 141.315 c 3.13,0 5.67,-2.54 5.67,-5.67 V 5.7871117 c 0,-3.13 -2.54,-5.67 -5.67,-5.67 H 23.515001 c -3.13,0 -5.67,2.54 -5.67,5.67 z M 113.675,39.157112 l -28.549999,28.55 -7.88,-7.88 28.549999,-28.55 z M 33.395001,9.6671117 h 21.94 c 2,0 3.96,0.26 5.81,0.7800003 1.86,0.52 3.61,1.27 5.22,2.22 1.61,0.95 3.1,2.11 4.44,3.44 1.33,1.33 2.49,2.83 3.44,4.45 0.95,1.62 1.69,3.38 2.22,5.24 0.52,1.85 0.78,3.81 0.78,5.81 0,2.99 -0.58,5.85 -1.72,8.5 -1.14,2.65 -2.72,5 -4.7,6.98 -1.98,1.98 -4.33,3.56 -6.98,4.7 -2.65,1.14 -5.51,1.72 -8.5,1.72 h -11.51 v 14.07 h -10.43 V 9.6671117 Z m 0.59,80.3600003 c 0.64,-2.29 1.55,-4.46 2.72,-6.45 1.17,-1.99 2.59,-3.83 4.23,-5.46 1.64,-1.64 3.48,-3.06 5.47,-4.23 1.99,-1.17 4.15,-2.08 6.43,-2.72 2.28,-0.64 4.68,-0.96 7.13,-0.96 3.2,0 6.34,0.56 9.33,1.65 2.89,1.06 5.55,2.62 7.91,4.62 l -5.2,8.55 c -1.5,-1.54 -3.28,-2.74 -5.28,-3.59 -2.14,-0.91 -4.41,-1.37 -6.75,-1.37 -2.34,0 -4.62,0.46 -6.69,1.35 -2.07,0.9 -3.89,2.13 -5.44,3.66 -1.54,1.53 -2.78,3.36 -3.68,5.44 -0.9,2.08 -1.35,4.32 -1.35,6.67 0,2.35 0.45,4.569998 1.35,6.629998 0.9,2.06 2.13,3.88 3.68,5.42 1.54,1.54 3.37,2.78 5.44,3.68 2.07,0.9 4.32,1.35 6.68,1.35 2.36,0 4.61,-0.46 6.75,-1.37 2,-0.85 3.78,-2.06 5.28,-3.59 l 5.2,8.55 c -2.35,1.98 -5.01,3.53 -7.91,4.6 -2.99,1.11 -6.13,1.67 -9.33,1.67 -2.46,0 -4.86,-0.32 -7.13,-0.96 -2.28,-0.64 -4.44,-1.55 -6.43,-2.72 -1.99,-1.17 -3.83,-2.59 -5.47,-4.23 -1.64,-1.64 -3.06,-3.48 -4.23,-5.47 -1.17,-1.99 -2.08,-4.15 -2.72,-6.43 -0.64,-2.28 -0.96,-4.679998 -0.96,-7.129998 0,-2.45 0.32,-4.86 0.96,-7.15 z m 52.93,91.929998 h -10.3 v -38.21 c 0,-0.78 -0.14,-1.49 -0.44,-2.18 -0.3,-0.71 -0.7,-1.3 -1.21,-1.81 -0.51,-0.51 -1.1,-0.91 -1.81,-1.21 -0.68,-0.29 -1.39,-0.44 -2.17,-0.44 -0.78,0 -1.5,0.14 -2.18,0.43 -0.71,0.31 -1.3,0.71 -1.82,1.22 -0.51,0.51 -0.91,1.1 -1.22,1.8 -0.29,0.68 -0.44,1.39 -0.44,2.17 v 0 38.21 h -10.3 v -38.21 c 0,-0.78 -0.14,-1.49 -0.44,-2.17 -0.3,-0.71 -0.7,-1.3 -1.21,-1.81 -0.51,-0.51 -1.1,-0.91 -1.81,-1.21 -0.68,-0.29 -1.39,-0.44 -2.17,-0.44 -0.78,0 -1.5,0.14 -2.18,0.44 -0.71,0.31 -1.3,0.71 -1.82,1.22 -0.51,0.51 -0.91,1.1 -1.21,1.8 -0.29,0.68 -0.44,1.39 -0.44,2.17 v 0 17.04 h -10.3 v -17.01 c 0,0 0,-0.02 0,-0.03 0,-1.45 0.19,-2.88 0.57,-4.24 0.38,-1.35 0.92,-2.63 1.62,-3.81 0.69,-1.17 1.53,-2.25 2.5,-3.22 0.97,-0.97 2.06,-1.81 3.24,-2.5 1.18,-0.68 2.45,-1.22 3.79,-1.6 1.36,-0.38 2.78,-0.57 4.24,-0.57 1.46,0 2.88,0.19 4.24,0.57 1.35,0.38 2.62,0.91 3.8,1.6 0.99,0.58 1.9,1.29 2.75,2.07 0.85,-0.79 1.77,-1.5 2.76,-2.08 1.18,-0.68 2.45,-1.22 3.79,-1.6 1.36,-0.38 2.78,-0.57 4.24,-0.57 1.46,0 2.88,0.19 4.24,0.57 1.35,0.38 2.63,0.91 3.8,1.6 1.17,0.68 2.25,1.52 3.22,2.49 0.97,0.97 1.81,2.05 2.49,3.23 0.69,1.17 1.22,2.45 1.6,3.8 0.38,1.36 0.57,2.79 0.57,4.24 v 38.21 z m -0.81,-72.22 c -1.17,-1.99 -2.09,-4.16 -2.73,-6.44 -0.64,-2.28 -0.96,-4.679998 -0.96,-7.139998 0,-2.46 0.32,-4.87 0.96,-7.16 0.64,-2.29 1.56,-4.46 2.73,-6.43 1.17,-1.98 2.59,-3.81 4.24,-5.46 1.64,-1.64 3.48,-3.06 5.47,-4.22 1.99,-1.16 4.15,-2.07 6.439999,-2.71 2.28,-0.64 4.68,-0.96 7.14,-0.96 2.46,0 4.87,0.32 7.16,0.96 2.29,0.64 4.46,1.55 6.43,2.71 1.98,1.16 3.81,2.58 5.45,4.22 1.64,1.64 3.06,3.48 4.22,5.45 1.16,1.98 2.07,4.15 2.71,6.44 0.64,2.29 0.96,4.7 0.96,7.16 0,2.46 -0.32,4.869998 -0.96,7.139998 -0.64,2.28 -1.55,4.45 -2.71,6.44 -1.16,1.99 -2.58,3.83 -4.22,5.47 -1.64,1.64 -3.48,3.07 -5.46,4.24 -1.98,1.17 -4.14,2.09 -6.43,2.73 -2.29,0.64 -4.7,0.96 -7.16,0.96 -2.46,0 -4.86,-0.32 -7.14,-0.96 -2.279999,-0.64 -4.439999,-1.56 -6.439999,-2.73 -1.99,-1.17 -3.83,-2.59 -5.47,-4.24 -1.64,-1.64 -3.07,-3.48 -4.24,-5.47 z m 27.819999,51.87 c -1.46,0.41 -2.98,0.61 -4.54,0.61 -1.56,0 -3.08,-0.2 -4.53,-0.61 -1.45,-0.41 -2.81,-0.98 -4.08,-1.73 -1.269999,-0.75 -2.429999,-1.64 -3.469999,-2.69 -1.05,-1.05 -1.94,-2.2 -2.69,-3.47 -0.75,-1.27 -1.32,-2.63 -1.73,-4.08 -0.41,-1.45 -0.61,-2.96 -0.61,-4.53 0,-1.57 0.2,-3.08 0.61,-4.54 0.41,-1.46 0.98,-2.82 1.73,-4.08 0.75,-1.26 1.64,-2.41 2.69,-3.46 1.05,-1.05 2.2,-1.94 3.469999,-2.68 1.27,-0.74 2.63,-1.31 4.08,-1.72 1.45,-0.41 2.96,-0.61 4.53,-0.61 1.57,0 3.08,0.2 4.54,0.61 1.46,0.41 2.82,0.98 4.08,1.72 1.26,0.74 2.41,1.63 3.46,2.68 1.05,1.05 1.94,2.2 2.68,3.46 0.74,1.26 1.31,2.62 1.72,4.08 0.41,1.46 0.61,2.97 0.61,4.54 0,1.57 -0.2,3.08 -0.61,4.53 -0.41,1.45 -0.98,2.81 -1.72,4.08 -0.74,1.27 -1.63,2.43 -2.68,3.47 -1.05,1.05 -2.2,1.94 -3.46,2.69 -1.26,0.75 -2.62,1.32 -4.08,1.73 z"
     id="path3"
     style="fill:#007cb7;fill-opacity:1" />
  <path
     class="cls-1"
     d="m 100.775,110.93711 c 1.27,0.75 2.63,1.32 4.08,1.73 1.45,0.41 2.96,0.61 4.53,0.61 1.57,0 3.08,-0.2 4.54,-0.61 1.46,-0.41 2.82,-0.98 4.08,-1.73 1.26,-0.75 2.41,-1.64 3.46,-2.69 1.05,-1.05 1.94,-2.2 2.68,-3.47 0.74,-1.27 1.31,-2.63 1.72,-4.08 0.41,-1.449998 0.61,-2.959998 0.61,-4.529998 0,-1.57 -0.2,-3.08 -0.61,-4.54 -0.41,-1.46 -0.98,-2.82 -1.72,-4.08 -0.74,-1.26 -1.63,-2.41 -2.68,-3.46 -1.05,-1.05 -2.2,-1.94 -3.46,-2.67 -1.26,-0.74 -2.62,-1.31 -4.08,-1.72 -1.46,-0.41 -2.98,-0.61 -4.54,-0.61 -1.56,0 -3.08,0.2 -4.53,0.61 -1.45,0.41 -2.81,0.98 -4.08,1.72 -1.269999,0.74 -2.429999,1.63 -3.469999,2.67 -1.05,1.05 -1.94,2.2 -2.69,3.46 -0.75,1.26 -1.32,2.62 -1.73,4.08 -0.41,1.46 -0.61,2.97 -0.61,4.54 0,1.57 0.2,3.08 0.61,4.529998 0.41,1.45 0.98,2.81 1.73,4.08 0.75,1.27 1.64,2.43 2.69,3.47 1.05,1.05 2.2,1.94 3.469999,2.69 z m 1.74,-17.669998 c 0.39,-0.91 0.92,-1.7 1.6,-2.36 0.67,-0.67 1.46,-1.2 2.36,-1.59 0.9,-0.39 1.87,-0.59 2.9,-0.59 1.03,0 1.99,0.2 2.89,0.59 0.91,0.39 1.7,0.92 2.36,1.59 0.67,0.67 1.2,1.46 1.59,2.36 0.39,0.91 0.59,1.87 0.59,2.89 0,1.02 -0.2,1.98 -0.59,2.88 -0.39,0.9 -0.92,1.679998 -1.59,2.359998 -0.67,0.67 -1.46,1.21 -2.36,1.6 -0.91,0.39 -1.87,0.59 -2.89,0.59 -1.02,0 -2,-0.2 -2.9,-0.59 -0.9,-0.39 -1.69,-0.92 -2.36,-1.6 -0.67,-0.67 -1.21,-1.459998 -1.6,-2.359998 -0.39,-0.9 -0.59,-1.86 -0.59,-2.88 0,-1.02 0.2,-1.99 0.59,-2.89 z"
     id="path4"
     style="fill:#007cb7;fill-opacity:1" />
</svg>
