<?xml version="1.0" encoding="UTF-8"?><svg id="Calque_1" xmlns="http://www.w3.org/2000/svg" viewBox="0 0 129.14 192.07"><defs><style>.cls-1{fill:#191915;stroke-width:0px;}</style></defs><path class="cls-1" d="m96.8,139.73c-.67-.67-1.46-1.2-2.36-1.59-.91-.39-1.87-.59-2.9-.59s-2,.2-2.9.59c-.9.39-1.69.92-2.36,1.59-.67.67-1.21,1.46-1.6,2.37-.39.91-.59,1.87-.59,2.89s.2,1.98.59,2.88c.39.9.92,1.68,1.6,2.36.67.67,1.46,1.21,2.36,1.6.9.39,1.87.59,2.9.59s1.99-.2,2.9-.59c.91-.39,1.7-.92,2.36-1.6.67-.67,1.2-1.46,1.59-2.36.39-.9.59-1.86.59-2.88s-.2-1.99-.59-2.89c-.39-.91-.92-1.7-1.59-2.37Z"/><path class="cls-1" d="m41.95,42.09c1.38-.6,2.61-1.43,3.65-2.46,1.04-1.04,1.87-2.27,2.46-3.67.6-1.4.9-2.9.9-4.47s-.3-3.08-.9-4.47c-.6-1.39-1.43-2.63-2.46-3.67-1.04-1.04-2.26-1.87-3.65-2.46-1.39-.6-2.88-.9-4.45-.9h-11.51v23.02h11.51c1.57,0,3.07-.3,4.45-.9Z"/><path class="cls-1" d="m0,5.67v180.73c0,3.13,2.54,5.67,5.67,5.67h117.8c3.13,0,5.67-2.54,5.67-5.67V5.67c0-3.13-2.54-5.67-5.67-5.67H5.67C2.54,0,0,2.54,0,5.67Zm95.83,33.37l-28.55,28.55-7.88-7.88,28.55-28.55,7.88,7.88ZM15.55,9.55h21.94c2,0,3.96.26,5.81.78,1.86.52,3.61,1.27,5.22,2.22,1.61.95,3.1,2.11,4.44,3.44,1.33,1.33,2.49,2.83,3.44,4.45.95,1.62,1.69,3.38,2.22,5.24.52,1.85.78,3.81.78,5.81,0,2.99-.58,5.85-1.72,8.5-1.14,2.65-2.72,5-4.7,6.98-1.98,1.98-4.33,3.56-6.98,4.7-2.65,1.14-5.51,1.72-8.5,1.72h-11.51v14.07h-10.43V9.55Zm.59,80.36c.64-2.29,1.55-4.46,2.72-6.45,1.17-1.99,2.59-3.83,4.23-5.46,1.64-1.64,3.48-3.06,5.47-4.23,1.99-1.17,4.15-2.08,6.43-2.72,2.28-.64,4.68-.96,7.13-.96,3.2,0,6.34.56,9.33,1.65,2.89,1.06,5.55,2.62,7.91,4.62l-5.2,8.55c-1.5-1.54-3.28-2.74-5.28-3.59-2.14-.91-4.41-1.37-6.75-1.37s-4.62.46-6.69,1.35c-2.07.9-3.89,2.13-5.44,3.66-1.54,1.53-2.78,3.36-3.68,5.44-.9,2.08-1.35,4.32-1.35,6.67s.45,4.57,1.35,6.63c.9,2.06,2.13,3.88,3.68,5.42,1.54,1.54,3.37,2.78,5.44,3.68,2.07.9,4.32,1.35,6.68,1.35s4.61-.46,6.75-1.37c2-.85,3.78-2.06,5.28-3.59l5.2,8.55c-2.35,1.98-5.01,3.53-7.91,4.6-2.99,1.11-6.13,1.67-9.33,1.67-2.46,0-4.86-.32-7.13-.96-2.28-.64-4.44-1.55-6.43-2.72-1.99-1.17-3.83-2.59-5.47-4.23-1.64-1.64-3.06-3.48-4.23-5.47-1.17-1.99-2.08-4.15-2.72-6.43-.64-2.28-.96-4.68-.96-7.13s.32-4.86.96-7.15Zm52.93,91.93h-10.3v-38.21c0-.78-.14-1.49-.44-2.18-.3-.71-.7-1.3-1.21-1.81-.51-.51-1.1-.91-1.81-1.21-.68-.29-1.39-.44-2.17-.44s-1.5.14-2.18.43c-.71.31-1.3.71-1.82,1.22-.51.51-.91,1.1-1.22,1.8-.29.68-.44,1.39-.44,2.17h0v38.21h-10.3v-38.21c0-.78-.14-1.49-.44-2.17-.3-.71-.7-1.3-1.21-1.81-.51-.51-1.1-.91-1.81-1.21-.68-.29-1.39-.44-2.17-.44s-1.5.14-2.18.44c-.71.31-1.3.71-1.82,1.22-.51.51-.91,1.1-1.21,1.8-.29.68-.44,1.39-.44,2.17h0v17.04h-10.3v-17.01s0-.02,0-.03c0-1.45.19-2.88.57-4.24.38-1.35.92-2.63,1.62-3.81.69-1.17,1.53-2.25,2.5-3.22.97-.97,2.06-1.81,3.24-2.5,1.18-.68,2.45-1.22,3.79-1.6,1.36-.38,2.78-.57,4.24-.57s2.88.19,4.24.57c1.35.38,2.62.91,3.8,1.6.99.58,1.9,1.29,2.75,2.07.85-.79,1.77-1.5,2.76-2.08,1.18-.68,2.45-1.22,3.79-1.6,1.36-.38,2.78-.57,4.24-.57s2.88.19,4.24.57c1.35.38,2.63.91,3.8,1.6,1.17.68,2.25,1.52,3.22,2.49.97.97,1.81,2.05,2.49,3.23.69,1.17,1.22,2.45,1.6,3.8.38,1.36.57,2.79.57,4.24v38.21Zm-.81-72.22c-1.17-1.99-2.09-4.16-2.73-6.44-.64-2.28-.96-4.68-.96-7.14s.32-4.87.96-7.16c.64-2.29,1.56-4.46,2.73-6.43,1.17-1.98,2.59-3.81,4.24-5.46,1.64-1.64,3.48-3.06,5.47-4.22,1.99-1.16,4.15-2.07,6.44-2.71,2.28-.64,4.68-.96,7.14-.96s4.87.32,7.16.96c2.29.64,4.46,1.55,6.43,2.71,1.98,1.16,3.81,2.58,5.45,4.22,1.64,1.64,3.06,3.48,4.22,5.45,1.16,1.98,2.07,4.15,2.71,6.44.64,2.29.96,4.7.96,7.16s-.32,4.87-.96,7.14c-.64,2.28-1.55,4.45-2.71,6.44-1.16,1.99-2.58,3.83-4.22,5.47-1.64,1.64-3.48,3.07-5.46,4.24-1.98,1.17-4.14,2.09-6.43,2.73-2.29.64-4.7.96-7.16.96s-4.86-.32-7.14-.96c-2.28-.64-4.44-1.56-6.44-2.73-1.99-1.17-3.83-2.59-5.47-4.24-1.64-1.64-3.07-3.48-4.24-5.47Zm27.82,51.87c-1.46.41-2.98.61-4.54.61s-3.08-.2-4.53-.61c-1.45-.41-2.81-.98-4.08-1.73-1.27-.75-2.43-1.64-3.47-2.69-1.05-1.05-1.94-2.2-2.69-3.47-.75-1.27-1.32-2.63-1.73-4.08-.41-1.45-.61-2.96-.61-4.53s.2-3.08.61-4.54c.41-1.46.98-2.82,1.73-4.08.75-1.26,1.64-2.41,2.69-3.46,1.05-1.05,2.2-1.94,3.47-2.68,1.27-.74,2.63-1.31,4.08-1.72,1.45-.41,2.96-.61,4.53-.61s3.08.2,4.54.61c1.46.41,2.82.98,4.08,1.72,1.26.74,2.41,1.63,3.46,2.68,1.05,1.05,1.94,2.2,2.68,3.46.74,1.26,1.31,2.62,1.72,4.08.41,1.46.61,2.97.61,4.54s-.2,3.08-.61,4.53c-.41,1.45-.98,2.81-1.72,4.08-.74,1.27-1.63,2.43-2.68,3.47-1.05,1.05-2.2,1.94-3.46,2.69-1.26.75-2.62,1.32-4.08,1.73Z"/><path class="cls-1" d="m82.93,110.82c1.27.75,2.63,1.32,4.08,1.73,1.45.41,2.96.61,4.53.61s3.08-.2,4.54-.61c1.46-.41,2.82-.98,4.08-1.73,1.26-.75,2.41-1.64,3.46-2.69,1.05-1.05,1.94-2.2,2.68-3.47.74-1.27,1.31-2.63,1.72-4.08.41-1.45.61-2.96.61-4.53s-.2-3.08-.61-4.54c-.41-1.46-.98-2.82-1.72-4.08s-1.63-2.41-2.68-3.46c-1.05-1.05-2.2-1.94-3.46-2.67-1.26-.74-2.62-1.31-4.08-1.72-1.46-.41-2.98-.61-4.54-.61s-3.08.2-4.53.61c-1.45.41-2.81.98-4.08,1.72-1.27.74-2.43,1.63-3.47,2.67-1.05,1.05-1.94,2.2-2.69,3.46-.75,1.26-1.32,2.62-1.73,4.08-.41,1.46-.61,2.97-.61,4.54s.2,3.08.61,4.53c.41,1.45.98,2.81,1.73,4.08.75,1.27,1.64,2.43,2.69,3.47,1.05,1.05,2.2,1.94,3.47,2.69Zm1.74-17.67c.39-.91.92-1.7,1.6-2.36.67-.67,1.46-1.2,2.36-1.59.9-.39,1.87-.59,2.9-.59s1.99.2,2.89.59c.91.39,1.7.92,2.36,1.59.67.67,1.2,1.46,1.59,2.36.39.91.59,1.87.59,2.89s-.2,1.98-.59,2.88c-.39.9-.92,1.68-1.59,2.36-.67.67-1.46,1.21-2.36,1.6-.91.39-1.87.59-2.89.59s-2-.2-2.9-.59c-.9-.39-1.69-.92-2.36-1.6-.67-.67-1.21-1.46-1.6-2.36-.39-.9-.59-1.86-.59-2.88s.2-1.99.59-2.89Z"/></svg>